<svg width="25" height="24" viewBox="0 0 25 24" fill="none" xmlns="http://www.w3.org/2000/svg">
<path d="M13.5417 11H18.5417C19.7085 11 20.2919 11 20.7375 11.218C21.1295 11.4097 21.4482 11.7157 21.648 12.092C21.875 12.5198 21.875 13.0799 21.875 14.2V21M13.5417 21V6.2C13.5417 5.0799 13.5417 4.51984 13.3146 4.09202C13.1149 3.71569 12.7962 3.40973 12.4042 3.21799C11.9585 3 11.3751 3 10.2084 3H6.45837C5.2916 3 4.70821 3 4.26256 3.21799C3.87056 3.40973 3.55185 3.71569 3.35211 4.09202C3.12504 4.51984 3.12504 5.0799 3.12504 6.2V21M22.9167 21H2.08337M6.77087 7H9.89587M6.77087 11H9.89587M6.77087 15H9.89587" stroke="#8183FD" stroke-width="1.5" stroke-linecap="round" stroke-linejoin="round"/>
</svg>
