<svg width="25" height="24" viewBox="0 0 25 24" fill="none" xmlns="http://www.w3.org/2000/svg">
<path d="M19.271 8V3M5.72933 21V16M16.6668 5.5H21.8752M3.12516 18.5H8.3335M6.771 2L5.95385 3.56892C5.6773 4.09989 5.53902 4.36538 5.3543 4.59545C5.19038 4.79959 4.99974 4.98261 4.78709 5.13997C4.54744 5.31731 4.27089 5.45005 3.71778 5.71554L2.0835 6.5L3.71778 7.28446C4.27089 7.54995 4.54744 7.68269 4.78709 7.86003C4.99974 8.01739 5.19038 8.20041 5.3543 8.40455C5.53902 8.63462 5.6773 8.9001 5.95385 9.43108L6.771 11L7.58814 9.43108C7.86469 8.9001 8.00297 8.63462 8.18769 8.40455C8.35161 8.20041 8.54225 8.01739 8.75491 7.86003C8.99455 7.68269 9.27111 7.54995 9.82421 7.28446L11.4585 6.5L9.82421 5.71554C9.2711 5.45005 8.99455 5.31731 8.75491 5.13997C8.54225 4.98261 8.35161 4.79959 8.18769 4.59545C8.00297 4.36538 7.86469 4.0999 7.58814 3.56892L6.771 2ZM17.7085 12L16.7177 13.9022C16.4412 14.4332 16.3029 14.6987 16.1182 14.9288C15.9543 15.1329 15.7636 15.3159 15.551 15.4733C15.3113 15.6506 15.0348 15.7834 14.4817 16.0489L12.5002 17L14.4817 17.9511C15.0348 18.2166 15.3113 18.3494 15.551 18.5267C15.7636 18.6841 15.9543 18.8671 16.1182 19.0712C16.3029 19.3013 16.4412 19.5668 16.7177 20.0977L17.7085 22L18.6993 20.0978C18.9758 19.5668 19.1141 19.3013 19.2988 19.0712C19.4627 18.8671 19.6534 18.6841 19.866 18.5267C20.1057 18.3494 20.3822 18.2166 20.9353 17.9511L22.9168 17L20.9353 16.0489C20.3822 15.7834 20.1057 15.6506 19.866 15.4733C19.6534 15.3159 19.4627 15.1329 19.2988 14.9288C19.1141 14.6987 18.9758 14.4332 18.6993 13.9023L17.7085 12Z" stroke="#8183FD" stroke-width="2" stroke-linecap="round" stroke-linejoin="round"/>
</svg>
