<svg width="25" height="24" viewBox="0 0 25 24" fill="none" xmlns="http://www.w3.org/2000/svg">
<path d="M19.7916 8V2M16.6666 5H22.9166M22.9166 12V17.2C22.9166 18.8802 22.9166 19.7202 22.576 20.362C22.2764 20.9265 21.7984 21.3854 21.2104 21.673C20.5419 22 19.6668 22 17.9166 22H7.08331C5.33315 22 4.45807 22 3.78959 21.673C3.20159 21.3854 2.72352 20.9265 2.42392 20.362C2.08331 19.7202 2.08331 18.8802 2.08331 17.2V6.8C2.08331 5.11984 2.08331 4.27976 2.42392 3.63803C2.72352 3.07354 3.20159 2.6146 3.78959 2.32698C4.45807 2 5.33315 2 7.08331 2H12.5M2.23513 19.9263C2.72382 18.2386 4.33623 17 6.24998 17H13.5416C14.5097 17 14.9937 17 15.3962 17.0769C17.0491 17.3925 18.3411 18.6329 18.6699 20.2196C18.75 20.606 18.75 21.0707 18.75 22M14.5833 9.5C14.5833 11.7091 12.7178 13.5 10.4166 13.5C8.11546 13.5 6.24998 11.7091 6.24998 9.5C6.24998 7.29086 8.11546 5.5 10.4166 5.5C12.7178 5.5 14.5833 7.29086 14.5833 9.5Z" stroke="#8183FD" stroke-width="1.5" stroke-linecap="round" stroke-linejoin="round"/>
</svg>
