<svg width="25" height="24" viewBox="0 0 25 24" fill="none" xmlns="http://www.w3.org/2000/svg">
<path d="M22.3958 18L15.4762 12M9.52379 12L2.60418 18M2.08331 7L10.5884 12.7154C11.2772 13.1783 11.6215 13.4097 11.9961 13.4993C12.327 13.5785 12.673 13.5785 13.0039 13.4993C13.3784 13.4097 13.7228 13.1783 14.4115 12.7154L22.9166 7M7.08331 20H17.9166C19.6668 20 20.5419 20 21.2104 19.673C21.7984 19.3854 22.2764 18.9265 22.576 18.362C22.9166 17.7202 22.9166 16.8802 22.9166 15.2V8.8C22.9166 7.11984 22.9166 6.27976 22.576 5.63803C22.2764 5.07354 21.7984 4.6146 21.2104 4.32698C20.5419 4 19.6668 4 17.9166 4H7.08331C5.33315 4 4.45807 4 3.78959 4.32698C3.20159 4.6146 2.72352 5.07354 2.42392 5.63803C2.08331 6.27976 2.08331 7.11984 2.08331 8.8V15.2C2.08331 16.8802 2.08331 17.7202 2.42392 18.362C2.72352 18.9265 3.20159 19.3854 3.78959 19.673C4.45807 20 5.33315 20 7.08331 20Z" stroke="#8183FD" stroke-width="1.5" stroke-linecap="round" stroke-linejoin="round"/>
</svg>
