<svg width="1080" height="263" viewBox="0 0 1080 263" fill="none" xmlns="http://www.w3.org/2000/svg">
<path d="M344.921 137.111C331.996 124.171 314.458 116.881 296.156 116.841C277.853 116.801 260.283 124.015 247.301 136.898C255.99 128.393 267.683 123.649 279.849 123.692C292.015 123.736 303.674 128.563 312.302 137.129C320.929 145.695 325.83 157.31 325.942 169.458C326.055 181.606 321.371 193.31 312.904 202.034V202.034L312.84 202.098L312.531 202.418L312.029 202.908C299.08 215.888 281.497 223.2 263.149 223.235C244.8 223.27 227.19 216.025 214.191 203.094C201.192 190.163 193.869 172.605 193.834 154.283C193.799 135.961 201.054 118.375 214.004 105.395C196.722 122.63 187.005 146.016 186.99 170.406C186.975 194.796 196.664 218.193 213.924 235.45C231.184 252.707 254.603 262.41 279.027 262.425C303.452 262.44 326.882 252.765 344.164 235.53C344.281 235.423 344.399 235.317 344.505 235.199L344.932 234.784L345.071 234.635C345.263 234.454 345.444 234.262 345.626 234.07L345.871 233.825C358.421 220.788 365.352 203.357 365.174 185.274C364.997 167.191 357.725 149.899 344.921 137.111V137.111Z" fill="url(#paint0_linear_1596_13561)"/>
<path d="M321.52 88.3097C304.312 79.4959 284.764 76.3129 265.644 79.2116C246.524 82.1104 228.803 90.944 214.991 104.461L214.682 104.77L214.362 105.089L213.743 105.707C200.825 118.72 193.612 136.325 193.692 154.648C193.772 172.971 201.138 190.512 214.17 203.412C227.201 216.312 244.831 223.514 263.18 223.434C281.529 223.355 299.095 215.999 312.014 202.986C303.313 211.598 291.547 216.412 279.296 216.372C267.046 216.332 255.312 211.441 246.668 202.773C238.024 194.104 233.176 182.366 233.188 170.133C233.199 157.9 238.07 146.171 246.731 137.519L247.019 137.242C260.022 124.687 277.432 117.717 295.519 117.825C313.606 117.933 330.931 125.111 343.783 137.82C356.634 150.529 363.99 167.759 364.273 185.819C364.557 203.878 357.747 221.33 345.301 234.436C355.379 224.135 362.896 211.615 367.245 197.884C371.594 184.153 372.655 169.594 370.342 155.379C368.028 141.164 362.406 127.69 353.926 116.041C345.446 104.392 334.346 94.8935 321.52 88.3097Z" fill="#17A674"/>
<path d="M321.52 88.3097C304.312 79.4959 284.764 76.3129 265.644 79.2116C246.524 82.1104 228.803 90.944 214.991 104.461L214.682 104.77L214.362 105.089L213.743 105.707C200.825 118.72 193.612 136.325 193.692 154.648C193.772 172.971 201.138 190.512 214.17 203.412C227.201 216.312 244.831 223.514 263.18 223.434C281.529 223.355 299.095 215.999 312.014 202.986C303.313 211.598 291.547 216.412 279.296 216.372C267.046 216.332 255.312 211.441 246.668 202.773C238.024 194.104 233.176 182.366 233.188 170.133C233.199 157.9 238.07 146.171 246.731 137.519L247.019 137.242C260.022 124.687 277.432 117.717 295.519 117.825C313.606 117.933 330.931 125.111 343.783 137.82C356.634 150.529 363.99 167.759 364.273 185.819C364.557 203.878 357.747 221.33 345.301 234.436C355.379 224.135 362.896 211.615 367.245 197.884C371.594 184.153 372.655 169.594 370.342 155.379C368.028 141.164 362.406 127.69 353.926 116.041C345.446 104.392 334.346 94.8935 321.52 88.3097Z" fill="url(#paint1_linear_1596_13561)"/>
<path d="M321.52 88.3097C304.312 79.4959 284.764 76.3129 265.644 79.2116C246.524 82.1104 228.803 90.944 214.991 104.461L214.682 104.77L214.362 105.089L213.743 105.707C200.825 118.72 193.612 136.325 193.692 154.648C193.772 172.971 201.138 190.512 214.17 203.412C227.201 216.312 244.831 223.514 263.18 223.434C281.529 223.355 299.095 215.999 312.014 202.986C303.313 211.598 291.547 216.412 279.296 216.372C267.046 216.332 255.312 211.441 246.668 202.773C238.024 194.104 233.176 182.366 233.188 170.133C233.199 157.9 238.07 146.171 246.731 137.519L247.019 137.242C260.022 124.687 277.432 117.717 295.519 117.825C313.606 117.933 330.931 125.111 343.783 137.82C356.634 150.529 363.99 167.759 364.273 185.819C364.557 203.878 357.747 221.33 345.301 234.436C355.379 224.135 362.896 211.615 367.245 197.884C371.594 184.153 372.655 169.594 370.342 155.379C368.028 141.164 362.406 127.69 353.926 116.041C345.446 104.392 334.346 94.8935 321.52 88.3097Z" fill="url(#paint2_linear_1596_13561)"/>
<path d="M321.52 88.3097C304.312 79.4959 284.764 76.3129 265.644 79.2116C246.524 82.1104 228.803 90.944 214.991 104.461L214.682 104.77L214.362 105.089L213.743 105.707C200.825 118.72 193.612 136.325 193.692 154.648C193.772 172.971 201.138 190.512 214.17 203.412C227.201 216.312 244.831 223.514 263.18 223.434C281.529 223.355 299.095 215.999 312.014 202.986C303.313 211.598 291.547 216.412 279.296 216.372C267.046 216.332 255.312 211.441 246.668 202.773C238.024 194.104 233.176 182.366 233.188 170.133C233.199 157.9 238.07 146.171 246.731 137.519L247.019 137.242C260.022 124.687 277.432 117.717 295.519 117.825C313.606 117.933 330.931 125.111 343.783 137.82C356.634 150.529 363.99 167.759 364.273 185.819C364.557 203.878 357.747 221.33 345.301 234.436C355.379 224.135 362.896 211.615 367.245 197.884C371.594 184.153 372.655 169.594 370.342 155.379C368.028 141.164 362.406 127.69 353.926 116.041C345.446 104.392 334.346 94.8935 321.52 88.3097Z" fill="url(#paint3_linear_1596_13561)"/>
<path d="M321.52 88.3097C304.312 79.4959 284.764 76.3129 265.644 79.2116C246.524 82.1104 228.803 90.944 214.991 104.461L214.682 104.77L214.362 105.089L213.743 105.707C200.825 118.72 193.612 136.325 193.692 154.648C193.772 172.971 201.138 190.512 214.17 203.412C227.201 216.312 244.831 223.514 263.18 223.434C281.529 223.355 299.095 215.999 312.014 202.986C303.313 211.598 291.547 216.412 279.296 216.372C267.046 216.332 255.312 211.441 246.668 202.773C238.024 194.104 233.176 182.366 233.188 170.133C233.199 157.9 238.07 146.171 246.731 137.519L247.019 137.242C260.022 124.687 277.432 117.717 295.519 117.825C313.606 117.933 330.931 125.111 343.783 137.82C356.634 150.529 363.99 167.759 364.273 185.819C364.557 203.878 357.747 221.33 345.301 234.436C355.379 224.135 362.896 211.615 367.245 197.884C371.594 184.153 372.655 169.594 370.342 155.379C368.028 141.164 362.406 127.69 353.926 116.041C345.446 104.392 334.346 94.8935 321.52 88.3097Z" fill="url(#paint4_linear_1596_13561)"/>
<path d="M321.52 88.3097C304.312 79.4959 284.764 76.3129 265.644 79.2116C246.524 82.1104 228.803 90.944 214.991 104.461L214.682 104.77L214.362 105.089L213.743 105.707C200.825 118.72 193.612 136.325 193.692 154.648C193.772 172.971 201.138 190.512 214.17 203.412C227.201 216.312 244.831 223.514 263.18 223.434C281.529 223.355 299.095 215.999 312.014 202.986C303.313 211.598 291.547 216.412 279.296 216.372C267.046 216.332 255.312 211.441 246.668 202.773C238.024 194.104 233.176 182.366 233.188 170.133C233.199 157.9 238.07 146.171 246.731 137.519L247.019 137.242C260.022 124.687 277.432 117.717 295.519 117.825C313.606 117.933 330.931 125.111 343.783 137.82C356.634 150.529 363.99 167.759 364.273 185.819C364.557 203.878 357.747 221.33 345.301 234.436C355.379 224.135 362.896 211.615 367.245 197.884C371.594 184.153 372.655 169.594 370.342 155.379C368.028 141.164 362.406 127.69 353.926 116.041C345.446 104.392 334.346 94.8935 321.52 88.3097Z" fill="url(#paint5_linear_1596_13561)"/>
<path d="M321.52 88.3097C304.312 79.4959 284.764 76.3129 265.644 79.2116C246.524 82.1104 228.803 90.944 214.991 104.461L214.682 104.77L214.362 105.089L213.743 105.707C200.825 118.72 193.612 136.325 193.692 154.648C193.772 172.971 201.138 190.512 214.17 203.412C227.201 216.312 244.831 223.514 263.18 223.434C281.529 223.355 299.095 215.999 312.014 202.986C303.313 211.598 291.547 216.412 279.296 216.372C267.046 216.332 255.312 211.441 246.668 202.773C238.024 194.104 233.176 182.366 233.188 170.133C233.199 157.9 238.07 146.171 246.731 137.519L247.019 137.242C260.022 124.687 277.432 117.717 295.519 117.825C313.606 117.933 330.931 125.111 343.783 137.82C356.634 150.529 363.99 167.759 364.273 185.819C364.557 203.878 357.747 221.33 345.301 234.436C355.379 224.135 362.896 211.615 367.245 197.884C371.594 184.153 372.655 169.594 370.342 155.379C368.028 141.164 362.406 127.69 353.926 116.041C345.446 104.392 334.346 94.8935 321.52 88.3097Z" fill="url(#paint6_linear_1596_13561)"/>
<path d="M914.552 109.039V152.625C905.809 164.29 894.197 168.277 882.574 168.277C861.892 168.277 847.475 150.886 847.475 130.991C847.475 110.778 861.892 93.0575 882.574 93.0575C894.197 93.0575 905.809 97.1085 914.552 109.039Z" fill="#111827"/>
<path d="M1038 0.0639051H799.643C794.127 0.0625123 788.665 1.15375 783.568 3.27531C778.471 5.39686 773.84 8.50716 769.939 12.4286C766.038 16.35 762.944 21.0057 760.833 26.1297C758.721 31.2538 757.635 36.7459 757.635 42.2923V177.398C789.17 177.525 813.807 201.715 813.807 232.723C813.858 242.925 811.099 252.942 805.834 261.664H1038C1049.14 261.655 1059.82 257.203 1067.69 249.286C1075.56 241.368 1079.99 230.632 1080 219.435V42.3347C1080.01 36.7853 1078.93 31.2889 1076.82 26.1599C1074.71 21.031 1071.62 16.3702 1067.72 12.4442C1063.82 8.51816 1059.18 5.4039 1054.09 3.27956C1048.99 1.15523 1043.52 0.0625068 1038 0.0639051ZM953.933 201.916H914.551V191.067C904.089 197.929 891.348 201.916 876.066 201.916C838.656 201.916 808.344 170.589 808.344 130.991C808.344 90.82 838.656 59.7478 876.066 59.7478C891.316 59.7478 904.089 63.7353 914.551 70.5966V59.7478H953.933V201.916ZM1029.32 201.916H989.94V59.7478H1029.37L1029.32 201.916Z" fill="#111827"/>
<path d="M118.209 154.353L188.937 78.6242H123.188L52.8504 154.735V0H0V261.727H52.8504V223.857L82.1496 192.923L130.402 261.727H196.91L118.209 154.353Z" fill="#111827"/>
<path d="M441.512 101.859V78.5287H389.484V261.727H441.512V154.162C456.51 137.608 476.317 129.326 504.382 128.234V78.5606C477.825 78.5606 457.596 86.8323 441.512 101.859Z" fill="#111827"/>
<path d="M686.17 165.775C686.17 111.998 649.34 76.8214 599.875 76.8214C545.295 76.8214 508.117 115.656 508.117 169.37C508.117 221.333 545.654 261.632 601.246 261.632C642.095 261.632 674.59 238.715 683.966 205.278H631.664C626.228 214.009 616.462 218.375 602.364 218.375C574.942 218.375 561.579 202.393 557.614 182.053H685.084C685.871 176.664 686.235 171.221 686.17 165.775V165.775ZM557.93 152.296C562.645 132.73 575.987 118.541 600.181 118.541C620.421 118.541 633.436 130.545 636.304 152.296H557.93Z" fill="#111827"/>
<path d="M757.465 203.963C741.255 203.963 727.85 216.349 727.85 232.659C727.85 249.341 741.255 261.727 757.465 261.727C774.066 261.727 787.471 249.341 787.471 232.659C787.471 216.338 774.066 203.963 757.465 203.963Z" fill="#111827"/>
<path d="M246.564 137.623L246.787 137.407C246.728 137.458 246.673 137.513 246.622 137.573L246.564 137.623Z" fill="url(#paint7_linear_1596_13561)"/>
<path d="M343.285 234.833L343.392 234.716L343.037 235.074L343.285 234.833Z" fill="url(#paint8_linear_1596_13561)"/>
<defs>
<linearGradient id="paint0_linear_1596_13561" x1="205.049" y1="226.15" x2="358.782" y2="124.184" gradientUnits="userSpaceOnUse">
<stop stop-color="#8C8EFF"/>
<stop offset="0.549246" stop-color="#4B4EFC"/>
<stop offset="1" stop-color="#3D40F2"/>
</linearGradient>
<linearGradient id="paint1_linear_1596_13561" x1="308.102" y1="144.446" x2="377.413" y2="100.299" gradientUnits="userSpaceOnUse">
<stop stop-color="#BFC527" stop-opacity="0"/>
<stop offset="1" stop-color="#BFC527"/>
</linearGradient>
<linearGradient id="paint2_linear_1596_13561" x1="289.58" y1="119.565" x2="273.127" y2="178.419" gradientUnits="userSpaceOnUse">
<stop stop-color="#FEC412"/>
<stop offset="1" stop-color="#FEC412" stop-opacity="0"/>
</linearGradient>
<linearGradient id="paint3_linear_1596_13561" x1="234.686" y1="165.293" x2="327.635" y2="167.991" gradientUnits="userSpaceOnUse">
<stop stop-color="#E05063"/>
<stop offset="1" stop-color="#E05063" stop-opacity="0"/>
</linearGradient>
<linearGradient id="paint4_linear_1596_13561" x1="237.38" y1="188.493" x2="286.113" y2="124.533" gradientUnits="userSpaceOnUse">
<stop stop-color="#AF348D"/>
<stop offset="1" stop-color="#AF348D" stop-opacity="0"/>
</linearGradient>
<linearGradient id="paint5_linear_1596_13561" x1="290.59" y1="214.719" x2="264.735" y2="126.603" gradientUnits="userSpaceOnUse">
<stop stop-color="#3596D5"/>
<stop offset="1" stop-color="#3596D5" stop-opacity="0"/>
</linearGradient>
<linearGradient id="paint6_linear_1596_13561" x1="353.23" y1="222.788" x2="301.769" y2="181.351" gradientUnits="userSpaceOnUse">
<stop stop-color="#17A674"/>
<stop offset="1" stop-color="#17A674" stop-opacity="0"/>
</linearGradient>
<linearGradient id="paint7_linear_1596_13561" x1="279.612" y1="183.913" x2="297.966" y2="164.956" gradientUnits="userSpaceOnUse">
<stop stop-color="#009DAB" stop-opacity="0"/>
<stop offset="1" stop-color="#009DAB"/>
</linearGradient>
<linearGradient id="paint8_linear_1596_13561" x1="392.681" y1="183.433" x2="306.867" y2="271.728" gradientUnits="userSpaceOnUse">
<stop offset="0.24" stop-color="#009DAB" stop-opacity="0"/>
<stop offset="1" stop-color="#009DAB"/>
</linearGradient>
</defs>
</svg>
