<svg width="25" height="24" viewBox="0 0 25 24" fill="none" xmlns="http://www.w3.org/2000/svg">
<path d="M7.29167 8.5H12.5M7.29167 12H15.625M10.0872 18H16.875C18.6252 18 19.5002 18 20.1687 17.673C20.7567 17.3854 21.2348 16.9265 21.5344 16.362C21.875 15.7202 21.875 14.8802 21.875 13.2V7.8C21.875 6.11984 21.875 5.27976 21.5344 4.63803C21.2348 4.07354 20.7567 3.6146 20.1687 3.32698C19.5002 3 18.6252 3 16.875 3H8.125C6.37484 3 5.49975 3 4.83128 3.32698C4.24327 3.6146 3.76521 4.07354 3.4656 4.63803C3.125 5.27976 3.125 6.11984 3.125 7.8V20.3355C3.125 20.8684 3.125 21.1348 3.23878 21.2716C3.33773 21.3906 3.48778 21.4599 3.6464 21.4597C3.82878 21.4595 4.04549 21.2931 4.47891 20.9602L6.96376 19.0518C7.47137 18.662 7.72518 18.4671 8.0078 18.3285C8.25854 18.2055 8.52544 18.1156 8.80127 18.0613C9.11215 18 9.43718 18 10.0872 18Z" stroke="#8183FD" stroke-width="1.5" stroke-linecap="round" stroke-linejoin="round"/>
</svg>
