<svg width="25" height="24" viewBox="0 0 25 24" fill="none" xmlns="http://www.w3.org/2000/svg">
<path d="M6.25016 20.087H8.96922C9.32373 20.087 9.67608 20.1275 10.0198 20.2085L12.8928 20.8788C13.5161 21.0246 14.1656 21.0387 14.7954 20.9213L17.972 20.328C18.8111 20.1711 19.5831 19.7853 20.188 19.2204L22.4355 17.1216C23.0773 16.5233 23.0773 15.5523 22.4355 14.953C21.8576 14.4133 20.9426 14.3526 20.2888 14.8102L17.6695 16.6447C17.2944 16.908 16.838 17.0497 16.3686 17.0497H13.8392L15.4492 17.0497C16.3566 17.0497 17.0917 16.3632 17.0917 15.5158V15.209C17.0917 14.5054 16.5789 13.8919 15.8482 13.7218L13.3633 13.1416C12.9589 13.0475 12.5447 12.9999 12.1284 12.9999C11.1234 12.9999 9.30422 13.7987 9.30422 13.7987L6.25016 15.0248M2.0835 14.5999L2.0835 20.3999C2.0835 20.9599 2.0835 21.24 2.19703 21.4539C2.2969 21.642 2.45625 21.795 2.65226 21.8909C2.87508 21.9999 3.16677 21.9999 3.75016 21.9999H4.5835C5.16688 21.9999 5.45858 21.9999 5.6814 21.8909C5.8774 21.795 6.03676 21.642 6.13663 21.4539C6.25016 21.24 6.25016 20.9599 6.25016 20.3999V14.5999C6.25016 14.0398 6.25016 13.7598 6.13663 13.5459C6.03676 13.3577 5.87741 13.2048 5.6814 13.1089C5.45858 12.9999 5.16688 12.9999 4.5835 12.9999H3.75016C3.16678 12.9999 2.87508 12.9999 2.65226 13.1089C2.45625 13.2048 2.2969 13.3577 2.19703 13.5459C2.0835 13.7598 2.0835 14.0398 2.0835 14.5999ZM17.9078 3.59215C17.2862 2.34329 15.8529 1.68168 14.4589 2.32027C13.065 2.95886 12.4712 4.47328 13.0548 5.80272C13.4155 6.62435 14.4489 8.2199 15.1857 9.31893C15.4579 9.725 15.594 9.92804 15.7929 10.0468C15.9634 10.1487 16.1769 10.2036 16.3776 10.1972C16.6117 10.1898 16.8353 10.0793 17.2826 9.85832C18.4931 9.26021 20.2191 8.37445 20.9594 7.83602C22.1572 6.96481 22.4539 5.36347 21.5571 4.14614C20.6603 2.9288 19.0967 2.80902 17.9078 3.59215Z" stroke="#8183FD" stroke-width="2" stroke-linecap="round" stroke-linejoin="round"/>
</svg>
