<svg width="25" height="24" viewBox="0 0 25 24" fill="none" xmlns="http://www.w3.org/2000/svg">
<path d="M8.19652 15.4599L7.29167 22L12.0713 19.247C12.2271 19.1572 12.3051 19.1123 12.3883 19.0947C12.4619 19.0792 12.5381 19.0792 12.6117 19.0947C12.6949 19.1123 12.7729 19.1572 12.9287 19.247L17.7083 22L16.8041 15.4571M17.1103 4.24888C17.2712 4.6224 17.58 4.9193 17.9688 5.0743L19.3322 5.61648C19.7213 5.77121 20.0305 6.06799 20.1916 6.44154C20.3528 6.81509 20.3528 7.23481 20.1916 7.60836L19.6273 8.91635C19.466 9.29007 19.4658 9.71021 19.6278 10.0837L20.1912 11.3913C20.2711 11.5764 20.3122 11.7747 20.3122 11.975C20.3123 12.1752 20.2712 12.3736 20.1913 12.5586C20.1115 12.7436 19.9945 12.9118 19.8469 13.0534C19.6994 13.195 19.5242 13.3073 19.3315 13.3839L17.969 13.9256C17.58 14.0801 17.2707 14.3765 17.1092 14.7498L16.5445 16.0588C16.3833 16.4323 16.0742 16.7291 15.6851 16.8838C15.296 17.0386 14.8588 17.0386 14.4697 16.8838L13.1073 16.342C12.7181 16.1877 12.2811 16.188 11.8922 16.3429L10.5288 16.8843C10.1399 17.0387 9.70313 17.0386 9.31435 16.884C8.92557 16.7293 8.6166 16.4329 8.45532 16.0598L7.89041 14.7504C7.72953 14.3769 7.42074 14.08 7.03191 13.925L5.66849 13.3828C5.27956 13.2282 4.97051 12.9316 4.80928 12.5582C4.64805 12.1849 4.64783 11.7654 4.80868 11.3919L5.37302 10.0839C5.53379 9.71035 5.53346 9.29079 5.37211 8.91746L4.80857 7.60759C4.72867 7.42257 4.68753 7.22426 4.6875 7.02397C4.68747 6.82369 4.72854 6.62536 4.80838 6.44032C4.88821 6.25529 5.00525 6.08716 5.15279 5.94556C5.30033 5.80396 5.47549 5.69166 5.66825 5.61508L7.0307 5.07329C7.41943 4.91898 7.7285 4.6229 7.89008 4.25004L8.45483 2.94111C8.616 2.56756 8.92514 2.27078 9.31424 2.11605C9.70334 1.96132 10.1405 1.96132 10.5296 2.11605L11.8921 2.65784C12.2812 2.81218 12.7182 2.81187 13.1071 2.65696L14.4711 2.11689C14.8601 1.96224 15.2972 1.96228 15.6862 2.11697C16.0753 2.27167 16.3844 2.56837 16.5455 2.94182L17.1105 4.25115L17.1103 4.24888Z" stroke="#8183FD" stroke-width="1.5" stroke-linecap="round" stroke-linejoin="round"/>
</svg>
